Coordinates
version=1
nRows=4
nColumns=63
inDegrees=yes

Units are S.I. units (second, meters, Newtons, ...)
If the header above contains a line with 'inDegrees', this indicates whether rotational values are in degrees (yes) or radians (no).

endheader
time	pelvis_tilt	pelvis_list	pelvis_rotation	pelvis_tx	pelvis_ty	pelvis_tz	hip_flexion_r	hip_adduction_r	hip_rotation_r	knee_angle_r	knee_angle_r_beta	ankle_angle_r	subtalar_angle_r	mtp_angle_r	hip_flexion_l	hip_adduction_l	hip_rotation_l	knee_angle_l	knee_angle_l_beta	ankle_angle_l	subtalar_angle_l	mtp_angle_l	L5_S1_Flex_Ext	L5_S1_Lat_Bending	L5_S1_axial_rotation	L4_L5_Flex_Ext	L4_L5_Lat_Bending	L4_L5_axial_rotation	L3_L4_Flex_Ext	L3_L4_Lat_Bending	L3_L4_axial_rotation	L2_L3_Flex_Ext	L2_L3_Lat_Bending	L2_L3_axial_rotation	L1_L2_Flex_Ext	L1_L2_Lat_Bending	L1_L2_axial_rotation	L1_T12_Flex_Ext	L1_T12_Lat_Bending	L1_T12_axial_rotation	Abs_r3	Abs_r2	Abs_r1	Abs_t1	Abs_t2	neck_flexion	neck_bending	neck_rotation	arm_flex_r	arm_add_r	arm_rot_r	elbow_flex_r	pro_sup_r	wrist_flex_r	wrist_dev_r	arm_flex_l	arm_add_l	arm_rot_l	elbow_flex_l	pro_sup_l	wrist_flex_l	wrist_dev_l
      0.00000000	      0.07720597	     -3.24907044	     93.52958240	      0.26538826	      0.68411786	      0.67721846	     12.35892567	     -4.05269867	    -19.25287805	     21.25271198	      0.37092980	     40.46325039	     15.64517054	      0.00000000	      4.46441509	     -0.29218124	     17.50634792	      1.33626075	      0.02332215	     32.69186173	    -12.71620428	      0.00000000	      0.38901292	     -0.05140148	     -1.19193364	      0.72243589	     -0.06836397	     -1.26642949	      0.63910932	     -0.12497757	     -1.26642949	      0.44460286	     -0.12497757	     -1.04294193	      0.36123739	     -0.10481791	     -0.96844608	      0.22228198	     -0.07962090	     -0.89395023	      2.77868037	     -0.58146387	     -6.62917730	      0.00000000	      0.00000000	     28.18009354	      8.05441756	     -9.20893811	     17.13136572	     -7.62642089	     62.01050351	     36.08145886	     19.42706191	      5.47639626	     -0.78120504	     17.31078777	     -4.20724869	     62.98157548	     31.04101471	     63.11931261	     -2.58421700	     -7.73950999
      0.01666667	     -0.42325535	     -2.76634747	     93.32734820	      0.26585609	      0.68573947	      0.67279207	     11.63482807	     -4.50927221	    -19.20272553	     21.34117524	      0.37247377	     40.51555938	     15.60066776	      0.00000000	      3.40577016	      0.16278960	     17.81474972	      1.13084622	      0.01973699	     32.62102933	    -13.16535575	      0.00000000	      0.36049696	     -0.14016602	     -1.03687699	      0.66947890	     -0.18642081	     -1.10168180	      0.59226045	     -0.34079967	     -1.10168180	      0.41201197	     -0.34079967	     -0.90726737	      0.33475747	     -0.28582655	     -0.84246255	      0.20598796	     -0.21711717	     -0.77765774	      2.57499371	     -1.58558607	     -5.76679876	      0.00000000	      0.00000000	     28.17922712	      9.19559933	     -9.45393430	     16.13172934	     -7.60882715	     60.35766104	     36.40874626	     18.59798574	      5.56270396	     -2.02833722	     16.80737245	     -4.52406279	     62.64237049	     31.70997637	     63.10243509	     -3.23361171	     -7.75385600
      0.03333333	     -0.69510943	     -2.32930556	     93.17379980	      0.26567835	      0.68692957	      0.66916095	     11.09112936	     -4.81013493	    -19.12627433	     21.55347084	      0.37617903	     40.71704217	     15.59766747	      0.00000000	      2.57867869	      0.44642049	     17.99107893	      1.06343534	      0.01856045	     32.72707925	    -13.44466833	      0.00000000	      0.33434062	     -0.18167741	     -0.92359859	      0.62090396	     -0.24163095	     -0.98132350	      0.54928820	     -0.44173045	     -0.98132350	      0.38211789	     -0.44173045	     -0.80814877	      0.31046870	     -0.37047657	     -0.75042385	      0.19104223	     -0.28141831	     -0.69269894	      2.38816159	     -2.05517118	     -5.13677828	      0.00000000	      0.00000000	     28.17715628	      9.74197382	     -9.59874212	     15.46836914	     -7.78120179	     59.54474523	     36.77119206	     18.23779727	      5.60154798	     -2.53985370	     16.48989270	     -4.60233458	     62.72700648	     31.83521187	     63.28442843	     -3.44294742	     -7.67168198
      0.05000000	     -0.70573847	     -2.21421049	     93.17137220	      0.26505895	      0.68761171	      0.66640898	     10.92232098	     -4.89250007	    -19.12576843	     21.65513083	      0.37795333	     40.74628200	     15.57051758	      0.00000000	      2.26016581	      0.52756188	     17.90869229	      1.08142086	      0.01887435	     32.75511955	    -13.54924505	      0.00000000	      0.35284291	     -0.17837741	     -0.91593499	      0.65526457	     -0.23724196	     -0.97318093	      0.57968562	     -0.43370684	     -0.97318093	      0.40326417	     -0.43370684	     -0.80144312	      0.32764993	     -0.36374721	     -0.74419718	      0.20161444	     -0.27630661	     -0.68695124	      2.52032164	     -2.01784094	     -5.09415565	      0.00000000	      0.00000000	     28.19258289	      9.75427713	     -9.60375138	     15.13870925	     -7.75659885	     59.53995852	     36.65695115	     18.20329389	      5.54046620	     -2.53564101	     16.14738285	     -4.60814056	     62.88887306	     31.66384851	     63.35280106	     -3.43801548	     -7.56674419
